HIERARCHY
ROOT Hips
{
	OFFSET 0.00000 0.00000 0.00000
	CHANNELS 6 Xposition Yposition Zposition Zrotation Yrotation Xrotation 
	JOINT LHipJoint
	{
		OFFSET 0 0 0
		CHANNELS 3 Zrotation Yrotation Xrotation
		JOINT LeftUpLeg
		{
			OFFSET 1.48831 -1.59570 0.95625
			CHANNELS 3 Zrotation Yrotation Xrotation
			JOINT LeftLeg
			{
				OFFSET 2.20856 -6.06797 0.00000
				CHANNELS 3 Zrotation Yrotation Xrotation
				JOINT LeftFoot
				{
					OFFSET 2.62924 -7.22379 0.00000
					CHANNELS 3 Zrotation Yrotation Xrotation
					JOINT LeftToeBase
					{
						OFFSET 0.16802 -0.46163 2.41673
						CHANNELS 3 Zrotation Yrotation Xrotation
						End Site
						{
							OFFSET 0.00000 -0.00000 1.23760
						}
					}
				}
			}
		}
	}
	JOINT RHipJoint
	{
		OFFSET 0 0 0
		CHANNELS 3 Zrotation Yrotation Xrotation
		JOINT RightUpLeg
		{
			OFFSET -1.56796 -1.59570 0.95625
			CHANNELS 3 Zrotation Yrotation Xrotation
			JOINT RightLeg
			{
				OFFSET -2.29239 -6.29829 0.00000
				CHANNELS 3 Zrotation Yrotation Xrotation
				JOINT RightFoot
				{
					OFFSET -2.66963 -7.33475 0.00000
					CHANNELS 3 Zrotation Yrotation Xrotation
					JOINT RightToeBase
					{
						OFFSET -0.18185 -0.49964 2.34359
						CHANNELS 3 Zrotation Yrotation Xrotation
						End Site
						{
							OFFSET -0.00000 -0.00000 1.20477
						}
					}
				}
			}
		}
	}
	JOINT LowerBack
	{
		OFFSET 0 0 0
		CHANNELS 3 Zrotation Yrotation Xrotation
		JOINT Spine
		{
			OFFSET 0.03505 2.15832 -0.34324
			CHANNELS 3 Zrotation Yrotation Xrotation
			JOINT Spine1
			{
				OFFSET -0.01089 2.17963 0.04689
				CHANNELS 3 Zrotation Yrotation Xrotation
				JOINT Neck
				{
					OFFSET 0 0 0
					CHANNELS 3 Zrotation Yrotation Xrotation
					JOINT Neck1
					{
						OFFSET 0.04686 1.69404 0.22159
						CHANNELS 3 Zrotation Yrotation Xrotation
						JOINT Head
						{
							OFFSET 0.00265 1.69305 -0.01513
							CHANNELS 3 Zrotation Yrotation Xrotation
							End Site
							{
								OFFSET -0.00415 1.80215 -0.03034
							}
						}
					}
				}
				JOINT LeftShoulder
				{
					OFFSET 0 0 0
					CHANNELS 3 Zrotation Yrotation Xrotation
					JOINT LeftArm
					{
						OFFSET 3.67184 1.11724 -0.19002
						CHANNELS 3 Zrotation Yrotation Xrotation
						JOINT LeftForeArm
						{
							OFFSET 5.17714 -0.00000 -0.00000
							CHANNELS 3 Zrotation Yrotation Xrotation
							JOINT LeftHand
							{
								OFFSET 3.43679 -0.00000 -0.00000
								CHANNELS 3 Zrotation Yrotation Xrotation
								JOINT LeftFingerBase
								{
									OFFSET 0 0 0
									CHANNELS 3 Zrotation Yrotation Xrotation
									JOINT LeftHandIndex1
									{
										OFFSET 0.57312 -0.00000 -0.00000
										CHANNELS 3 Zrotation Yrotation Xrotation
										End Site
										{
											OFFSET 0.46206 -0.00000 -0.00000
										}
									}
								}
								JOINT LThumb
								{
									OFFSET 0 0 0
									CHANNELS 3 Zrotation Yrotation Xrotation
									End Site
									{
										OFFSET 0.46912 -0.00000 0.46912
									}
								}
							}
						}
					}
				}
				JOINT RightShoulder
				{
					OFFSET 0 0 0
					CHANNELS 3 Zrotation Yrotation Xrotation
					JOINT RightArm
					{
						OFFSET -3.59596 0.95831 -0.26050
						CHANNELS 3 Zrotation Yrotation Xrotation
						JOINT RightForeArm
						{
							OFFSET -5.23908 -0.00000 -0.00000
							CHANNELS 3 Zrotation Yrotation Xrotation
							JOINT RightHand
							{
								OFFSET -3.46485 -0.00000 -0.00000
								CHANNELS 3 Zrotation Yrotation Xrotation
								JOINT RightFingerBase
								{
									OFFSET 0 0 0
									CHANNELS 3 Zrotation Yrotation Xrotation
									JOINT RightHandIndex1
									{
										OFFSET -0.60875 -0.00000 -0.00000
										CHANNELS 3 Zrotation Yrotation Xrotation
										End Site
										{
											OFFSET -0.49079 -0.00000 -0.00000
										}
									}
								}
								JOINT RThumb
								{
									OFFSET 0 0 0
									CHANNELS 3 Zrotation Yrotation Xrotation
									End Site
									{
										OFFSET -0.49829 -0.00000 0.49829
									}
								}
							}
						}
					}
				}
			}
		}
	}
}
MOTION
Frames: 15
Frame Time: .0083333
5.1081 16.3441 -4.7955 0 0 0 0 0 0 -21 0 0 0 0 0 0 0 0 0 0 0 0 0 0 21 0 0 0 0 0 0 0 0 0 0 0 0 0 0 0 0 0 0 0 0 0 0 -16 0 0 21 0 0 11 0 0 0 -8 0 0 0 0 0 0 0 0 0 0 0 0 0 0 0 0 0 0 0 0 8 0 0 0 0 0 0 0 0 0 0 0 0 0 0 0 0 0
5.1081 16.3441 -4.7955 -82.5805 -87.3866 79.4212 0.0000 0.0000 0.0000 -17.2207 4.6298 -3.2022 1.8164 8.4728 24.1595 1.3972 6.2269 -25.3524 0.0007 0.1731 0.4755 0.0000 0.0000 0.0000 21.7848 5.4346 -9.0960 -3.8982 -12.0237 35.8158 -1.9251 -7.3571 -29.7049 -0.0001 -0.0488 0.1340 2.3546 -0.1374 -0.6098 0.3115 -0.3982 5.5159 -1.0225 -0.1335 6.0495 3.4321 2.3997 1.5564 -1.4328 2.7941 18.4099 -0.9264 1.2803 5.3593 -0.0000 0.0000 0.0000 -87.0988 -3.5376 14.2804 14.3114 -23.1781 -2.9495 -0.0000 0.0000 -25.6234 15.6729 7.8074 2.1828 -7.1250 0.0000 -0.0000 -9.5444 37.9254 1.6807 -0.0000 0.0000 0.0000 89.5863 1.2537 12.1457 -15.6919 25.1011 -3.5142 0.0000 0.0000 1.0969 -20.6229 -9.1974 3.4423 7.1250 -0.0000 -0.0000 5.5210 -39.7369 0.7187
5.1079 16.3440 -4.7940 -83.4853 -87.3911 80.3112 0.0000 0.0000 0.0000 -17.2266 4.6440 -3.1808 1.8158 8.4714 24.1554 1.3979 6.2500 -25.3722 0.0007 0.1663 0.4570 0.0000 0.0000 0.0000 21.7851 5.4418 -9.0739 -3.8965 -12.0214 35.8078 -1.9212 -7.3589 -29.6809 -0.0001 -0.0521 0.1432 2.3531 -0.1360 -0.6111 0.3131 -0.3966 5.5204 -1.0199 -0.1328 6.0551 3.4243 2.4032 1.5693 -1.4269 2.7991 18.3868 -0.9231 1.2828 5.3499 -0.0000 -0.0000 0.0000 -87.1053 -3.5460 14.2447 14.2769 -23.1292 -2.9360 -0.0000 0.0000 -25.5638 15.7086 7.8210 2.1918 -7.1250 0.0000 -0.0000 -9.5165 37.9416 1.6719 -0.0000 -0.0000 0.0000 89.5957 1.2635 12.0810 -15.6775 25.0814 -3.5081 0.0000 0.0000 1.1742 -20.5957 -9.2418 3.4538 7.1250 -0.0000 -0.0000 5.5507 -39.7816 0.7165
5.1082 16.3443 -4.7927 -84.9305 -87.3430 81.7588 0.0000 0.0000 0.0000 -17.2062 4.5075 -3.1079 1.8131 8.4653 24.1367 1.4072 6.3535 -25.5065 0.0015 0.2517 0.6915 0.0000 0.0000 0.0000 21.8493 5.5024 -9.0640 -3.8968 -12.0219 35.8094 -1.9223 -7.3626 -29.6901 -0.0001 -0.0492 0.1351 2.4105 -0.1288 -0.5879 0.3269 -0.3885 5.4992 -1.0370 -0.1267 6.0196 3.4345 2.4094 1.5727 -1.4303 2.8068 18.4005 -0.9256 1.2866 5.3540 -0.0000 -0.0000 0.0000 -87.1066 -3.5480 14.1693 14.2881 -23.1451 -2.9404 -0.0000 0.0000 -25.4214 15.9339 9.0268 2.5648 -7.1250 0.0000 -0.0000 -9.5334 39.1902 1.3794 -0.0000 -0.0000 0.0000 89.6100 1.2459 12.0209 -15.6578 25.0544 -3.4998 0.0000 0.0000 1.2480 -20.5892 -9.1759 3.4282 7.1250 -0.0000 -0.0000 5.5472 -39.7114 0.7257
5.1078 16.3445 -4.7912 -85.5842 -87.3877 82.4239 0.0000 0.0000 0.0000 -17.2402 4.6235 -3.1533 1.8098 8.4581 24.1143 1.3989 6.3350 -25.4322 0.0009 0.1953 0.5366 0.0000 0.0000 0.0000 21.7994 5.5465 -9.0709 -3.8987 -12.0244 35.8184 -1.9240 -7.3539 -29.6961 -0.0001 -0.0548 0.1507 2.3503 -0.1360 -0.6446 0.3258 -0.3981 5.5202 -1.0054 -0.1338 6.0742 3.4166 2.4228 1.5707 -1.4304 2.8266 18.3767 -0.9218 1.2954 5.3471 -0.0000 -0.0000 0.0000 -87.1231 -3.6011 14.1121 14.1800 -22.9915 -2.8981 -0.0000 0.0000 -25.4298 15.9075 8.2932 2.3540 -7.1250 0.0000 -0.0000 -9.4277 38.4381 1.5398 -0.0000 -0.0000 0.0000 89.5949 1.2931 12.0228 -15.6395 25.0294 -3.4920 0.0000 0.0000 1.2587 -20.5508 -9.2577 3.4514 7.1250 -0.0000 -0.0000 5.5919 -39.7947 0.7201
5.1081 16.3448 -4.7890 -86.2861 -87.4109 83.1366 0.0000 0.0000 0.0000 -17.2753 4.6308 -3.1510 1.8063 8.4505 24.0909 1.3978 6.3628 -25.4413 0.0009 0.1975 0.5427 0.0000 0.0000 0.0000 21.7670 5.5668 -9.0872 -3.9008 -12.0272 35.8283 -1.9233 -7.3426 -29.6842 -0.0001 -0.0511 0.1403 2.3324 -0.1389 -0.6636 0.3214 -0.4014 5.5182 -1.0003 -0.1360 6.0829 3.4135 2.4304 1.5808 -1.4301 2.8370 18.3683 -0.9209 1.3003 5.3430 -0.0000 0.0000 0.0000 -87.1290 -3.6231 14.0635 14.0990 -22.8761 -2.8665 -0.0000 0.0000 -25.4021 15.9554 7.9857 2.2746 -7.1250 0.0000 -0.0000 -9.3352 38.1269 1.5965 -0.0000 0.0000 0.0000 89.5956 1.3048 11.9951 -15.6223 25.0059 -3.4848 0.0000 0.0000 1.2902 -20.5308 -9.2845 3.4576 7.1250 -0.0000 -0.0000 5.6130 -39.8215 0.7191
5.1086 16.3449 -4.7865 -86.8416 -87.4385 83.7048 0.0000 0.0000 0.0000 -17.3192 4.6313 -3.1437 1.8016 8.4400 24.0588 1.3958 6.3960 -25.4470 0.0009 0.1982 0.5447 0.0000 0.0000 0.0000 21.7240 5.5756 -9.1142 -3.9046 -12.0324 35.8468 -1.9230 -7.3217 -29.6703 -0.0001 -0.0468 0.1285 2.3162 -0.1429 -0.6806 0.3131 -0.4057 5.5138 -1.0002 -0.1386 6.0878 3.4132 2.4367 1.5945 -1.4299 2.8455 18.3637 -0.9206 1.3043 5.3395 -0.0000 0.0000 0.0000 -87.1318 -3.6432 14.0224 14.0079 -22.7460 -2.8311 -0.0000 0.0000 -25.3873 15.9701 7.5015 2.1397 -7.1250 0.0000 -0.0000 -9.2436 37.6321 1.6938 -0.0000 0.0000 0.0000 89.5977 1.3145 11.9675 -15.6047 24.9817 -3.4773 0.0000 0.0000 1.3163 -20.5116 -9.3151 3.4654 7.1250 -0.0000 -0.0000 5.6339 -39.8522 0.7175
5.1092 16.3450 -4.7836 -87.2636 -87.4706 84.1377 0.0000 0.0000 0.0000 -17.3672 4.6401 -3.1419 1.7980 8.4319 24.0339 1.3945 6.4146 -25.4487 0.0009 0.1989 0.5464 0.0000 0.0000 0.0000 21.6710 5.5660 -9.1429 -3.9077 -12.0365 35.8613 -1.9219 -7.2940 -29.6463 -0.0000 -0.0404 0.1110 2.3016 -0.1482 -0.6943 0.3012 -0.4116 5.5090 -1.0048 -0.1418 6.0903 3.4161 2.4419 1.6126 -1.4312 2.8525 18.3613 -0.9214 1.3076 5.3360 0.0000 -0.0000 0.0000 -87.1320 -3.6592 13.9889 13.9175 -22.6167 -2.7963 -0.0000 0.0000 -25.3802 15.9493 6.9453 1.9792 -7.1250 0.0000 -0.0000 -9.1735 37.0610 1.8104 0.0000 -0.0000 0.0000 89.6004 1.3234 11.9431 -15.5860 24.9561 -3.4694 0.0000 0.0000 1.3357 -20.5045 -9.3387 3.4727 7.1250 -0.0000 -0.0000 5.6434 -39.8766 0.7153
5.1099 16.3449 -4.7806 -87.6873 -87.4921 84.5678 0.0000 0.0000 0.0000 -17.4060 4.6372 -3.1331 1.7953 8.4261 24.0158 1.3947 6.4344 -25.4625 0.0010 0.2060 0.5660 0.0000 0.0000 0.0000 21.6284 5.5482 -9.1674 -3.9100 -12.0396 35.8723 -1.9201 -7.2647 -29.6173 -0.0000 -0.0327 0.0900 2.3019 -0.1531 -0.6999 0.2906 -0.4174 5.5028 -1.0163 -0.1443 6.0867 3.4222 2.4460 1.6350 -1.4341 2.8579 18.3636 -0.9233 1.3101 5.3333 -0.0000 -0.0000 0.0000 -87.1309 -3.6697 13.9566 13.8394 -22.5047 -2.7664 -0.0000 0.0000 -25.3656 15.9064 6.4915 1.8454 -7.1250 0.0000 -0.0000 -9.1405 36.5936 1.9094 -0.0000 -0.0000 0.0000 89.6033 1.3296 11.9225 -15.5651 24.9274 -3.4606 0.0000 0.0000 1.3452 -20.5086 -9.3502 3.4777 7.1250 -0.0000 -0.0000 5.6415 -39.8891 0.7133
5.1104 16.3446 -4.7776 -88.1542 -87.5067 85.0349 0.0000 0.0000 0.0000 -17.4359 4.6388 -3.1228 1.7941 8.4232 24.0072 1.3957 6.4484 -25.4793 0.0011 0.2122 0.5831 0.0000 0.0000 0.0000 21.5937 5.5272 -9.1822 -3.9111 -12.0412 35.8778 -1.9183 -7.2338 -29.5872 -0.0000 -0.0268 0.0738 2.3088 -0.1581 -0.7022 0.2820 -0.4237 5.4988 -1.0294 -0.1468 6.0834 3.4291 2.4506 1.6601 -1.4383 2.8640 18.3691 -0.9259 1.3129 5.3311 0.0000 -0.0000 0.0000 -87.1306 -3.6783 13.9213 13.7753 -22.4126 -2.7419 -0.0000 0.0000 -25.3433 15.8539 6.1821 1.7517 -7.1250 0.0000 -0.0000 -9.1382 36.2735 1.9812 0.0000 -0.0000 0.0000 89.6051 1.3349 11.9066 -15.5457 24.9008 -3.4524 0.0000 0.0000 1.3518 -20.5208 -9.3548 3.4817 7.1250 -0.0000 -0.0000 5.6316 -39.8949 0.7113
5.1109 16.3442 -4.7748 -88.7603 -87.5055 85.6364 0.0000 0.0000 0.0000 -17.4468 4.6400 -3.1114 1.7941 8.4233 24.0074 1.3975 6.4631 -25.5020 0.0011 0.2186 0.6005 0.0000 0.0000 0.0000 21.5803 5.5157 -9.1852 -3.9110 -12.0410 35.8771 -1.9164 -7.2081 -29.5601 -0.0000 -0.0242 0.0666 2.3274 -0.1616 -0.7029 0.2792 -0.4291 5.4977 -1.0431 -0.1485 6.0824 3.4362 2.4560 1.6876 -1.4441 2.8713 18.3754 -0.9289 1.3161 5.3289 -0.0000 0.0000 0.0000 -87.1317 -3.6865 13.8798 13.7296 -22.3468 -2.7245 -0.0000 0.0000 -25.3058 15.7966 6.0809 1.7166 -7.1250 0.0000 -0.0000 -9.1711 36.1666 2.0126 -0.0000 0.0000 0.0000 89.6039 1.3433 11.8977 -15.5243 24.8714 -3.4434 0.0000 0.0000 1.3512 -20.5382 -9.3510 3.4835 7.1250 -0.0000 -0.0000 5.6160 -39.8924 0.7096
5.1110 16.3438 -4.7723 -89.5484 -87.4874 86.4153 0.0000 0.0000 0.0000 -17.4369 4.6459 -3.0992 1.7950 8.4253 24.0134 1.3995 6.4786 -25.5263 0.0012 0.2232 0.6132 0.0000 0.0000 0.0000 21.5915 5.5205 -9.1751 -3.9099 -12.0396 35.8720 -1.9145 -7.1951 -29.5398 -0.0000 -0.0234 0.0644 2.3574 -0.1625 -0.7017 0.2825 -0.4318 5.4982 -1.0566 -0.1484 6.0822 3.4426 2.4614 1.7186 -1.4493 2.8784 18.3836 -0.9317 1.3191 5.3266 -0.0000 0.0000 0.0000 -87.1338 -3.6906 13.8401 13.6891 -22.2885 -2.7091 -0.0000 0.0000 -25.2725 15.7546 6.0287 1.6972 -7.1250 0.0000 -0.0000 -9.1983 36.1108 2.0314 -0.0000 0.0000 0.0000 89.6016 1.3484 11.8930 -15.5067 24.8473 -3.4361 0.0000 0.0000 1.3475 -20.5535 -9.3495 3.4858 7.1250 -0.0000 -0.0000 5.6024 -39.8921 0.7080
5.1112 16.3434 -4.7703 -90.4393 -87.4707 87.2980 0.0000 0.0000 0.0000 -17.4297 4.6421 -3.0874 1.7965 8.4288 24.0242 1.4019 6.5027 -25.5595 0.0013 0.2288 0.6286 0.0000 0.0000 0.0000 21.6057 5.5414 -9.1595 -3.9082 -12.0373 35.8639 -1.9129 -7.1897 -29.5262 -0.0000 -0.0279 0.0766 2.3796 -0.1617 -0.7039 0.2866 -0.4320 5.4998 -1.0648 -0.1476 6.0851 3.4487 2.4680 1.7528 -1.4542 2.8872 18.3918 -0.9343 1.3230 5.3239 0.0000 0.0000 0.0000 -87.1363 -3.6917 13.8008 13.6532 -22.2368 -2.6955 -0.0000 0.0000 -25.2407 15.7279 6.0012 1.6865 -7.1250 0.0000 -0.0000 -9.2164 36.0814 2.0422 0.0000 0.0000 0.0000 89.6018 1.3490 11.8855 -15.4971 24.8341 -3.4320 0.0000 0.0000 1.3493 -20.5624 -9.3509 3.4879 7.1250 -0.0000 -0.0000 5.5949 -39.8943 0.7067
5.1113 16.3433 -4.7684 -91.3675 -87.4579 88.2197 0.0000 0.0000 0.0000 -17.4260 4.6435 -3.0811 1.7983 8.4327 24.0362 1.4044 6.5229 -25.5913 0.0013 0.2358 0.6478 0.0000 0.0000 0.0000 21.6170 5.5701 -9.1432 -3.9064 -12.0348 35.8550 -1.9110 -7.1914 -29.5151 -0.0000 -0.0308 0.0848 2.3949 -0.1600 -0.7084 0.2899 -0.4308 5.5017 -1.0699 -0.1463 6.0899 3.4561 2.4751 1.7896 -1.4589 2.8966 18.3992 -0.9371 1.3272 5.3205 -0.0000 -0.0000 0.0000 -87.1378 -3.6920 13.7556 13.6195 -22.1881 -2.6827 -0.0000 0.0000 -25.2003 15.6962 6.0109 1.6856 -7.1250 0.0000 -0.0000 -9.2440 36.0895 2.0466 -0.0000 -0.0000 0.0000 89.6045 1.3459 11.8756 -15.4949 24.8310 -3.4311 0.0000 0.0000 1.3564 -20.5724 -9.3496 3.4893 7.1250 -0.0000 -0.0000 5.5860 -39.8937 0.7056
5.1113 16.3431 -4.7669 -92.3598 -87.4366 89.2045 0.0000 0.0000 0.0000 -17.4133 4.6413 -3.0722 1.7999 8.4363 24.0473 1.4070 6.5479 -25.6262 0.0014 0.2442 0.6709 0.0000 0.0000 0.0000 21.6412 5.6122 -9.1219 -3.9046 -12.0324 35.8466 -1.9097 -7.2000 -29.5119 -0.0000 -0.0363 0.0997 2.4126 -0.1570 -0.7160 0.2968 -0.4284 5.5070 -1.0725 -0.1444 6.0999 3.4644 2.4833 1.8267 -1.4644 2.9076 18.4044 -0.9402 1.3323 5.3164 0.0000 -0.0000 0.0000 -87.1398 -3.6953 13.7051 13.5881 -22.1429 -2.6709 -0.0000 0.0000 -25.1521 15.6476 6.0176 1.6820 -7.1250 0.0000 -0.0000 -9.2854 36.0938 2.0550 0.0000 -0.0000 0.0000 89.6091 1.3442 11.8558 -15.5012 24.8397 -3.4337 0.0000 0.0000 1.3800 -20.5549 -9.3732 3.4947 7.1250 -0.0000 -0.0000 5.6045 -39.9173 0.7047
